<?xml version="1.0" encoding="iso-8859-1"?>
<!-- Generator: Adobe Illustrator 19.0.0, SVG Export Plug-In . SVG Version: 6.00 Build 0)  -->
<svg version="1.1" id="Capa_1" xmlns="http://www.w3.org/2000/svg" xmlns:xlink="http://www.w3.org/1999/xlink" x="0px" y="0px"
	 viewBox="0 0 511.999 511.999" style="enable-background:new 0 0 511.999 511.999;" xml:space="preserve">
<path style="fill:#2C5871;" d="M2.263,509.736c-3.018-3.018-3.018-7.909,0-10.926l115.491-115.491c3.018-3.018,7.909-3.018,10.926,0
	c3.018,3.018,3.018,7.909,0,10.926L13.189,509.736C10.172,512.753,5.28,512.753,2.263,509.736z"/>
<path style="fill:#D0D1D2;" d="M121.814,414.763l-24.579-24.579c-4.16-4.16-4.16-10.906,0-15.066l44.625-44.625l39.645,39.645
	l-44.625,44.625C132.72,418.923,125.974,418.923,121.814,414.763z"/>
<rect x="390.792" y="48.996" transform="matrix(-0.7071 -0.7071 0.7071 -0.7071 624.3795 465.4377)" style="fill:#C2C4C6;" width="35.586" height="108.819"/>
<path style="fill:#E1EFFB;" d="M181.785,417.29l-87.076-87.076c-3.787-3.787-3.787-9.926,0-13.712L324.16,87.051
	c3.787-3.787,9.926-3.787,13.712,0l87.076,87.076c3.787,3.787,3.787,9.926,0,13.712L195.496,417.29
	C191.71,421.076,185.572,421.076,181.785,417.29z"/>
<path style="fill:#CADDEA;" d="M424.948,174.126l-29.079-29.079L152.705,388.21l29.079,29.079c3.787,3.787,9.926,3.787,13.713,0
	l229.45-229.45C428.734,184.052,428.734,177.913,424.948,174.126z"/>
<path style="fill:#24D9DE;" d="M94.708,316.501c-3.787,3.787-3.787,9.926,0,13.712l87.076,87.076c3.787,3.787,9.926,3.787,13.713,0
	l114.661-114.66L209.369,201.841L94.708,316.501z"/>
<path style="fill:#11B9C1;" d="M152.705,388.21l29.079,29.079c3.787,3.787,9.926,3.787,13.713,0l114.661-114.66l-35.935-35.935
	L152.705,388.21z"/>
<path style="fill:#D0D1D2;" d="M480.782,110.239L401.76,31.217c-3.505-3.505-3.505-9.189,0-12.694l15.894-15.894
	c3.505-3.505,9.189-3.505,12.694,0l79.022,79.022c3.505,3.505,3.505,9.189,0,12.694l-15.894,15.894
	C489.971,113.745,484.286,113.745,480.782,110.239z"/>
<path style="fill:#C2C4C6;" d="M509.371,81.651l-29.528-29.528l-28.589,28.589l29.528,29.528c3.505,3.505,9.189,3.505,12.694,0
	l15.894-15.894C512.875,90.839,512.875,85.156,509.371,81.651z"/>
<g>
	<path style="fill:#CADDEA;" d="M313.799,153.42l-28.005-28.005l-10.926,10.926l28.005,28.005c3.018,3.018,7.909,3.018,10.926,0
		C316.818,161.329,316.818,156.437,313.799,153.42z"/>
	<path style="fill:#CADDEA;" d="M257.454,192.034l-19.139-19.139l-10.926,10.926l19.139,19.139c3.018,3.018,7.909,3.018,10.926,0
		C260.473,199.943,260.473,195.051,257.454,192.034z"/>
</g>
<g>
	<path style="fill:#11B9C1;" d="M218.84,248.379l-28.005-28.005L179.91,231.3l28.005,28.005c3.018,3.018,7.909,3.018,10.926,0
		C221.857,256.288,221.857,251.397,218.84,248.379z"/>
	<path style="fill:#11B9C1;" d="M162.495,286.993l-19.139-19.139L132.43,278.78l19.139,19.139c3.018,3.018,7.909,3.018,10.926,0
		C165.512,294.902,165.512,290.011,162.495,286.993z"/>
</g>
<g>
</g>
<g>
</g>
<g>
</g>
<g>
</g>
<g>
</g>
<g>
</g>
<g>
</g>
<g>
</g>
<g>
</g>
<g>
</g>
<g>
</g>
<g>
</g>
<g>
</g>
<g>
</g>
<g>
</g>
</svg>
